<svg width="160" height="160" viewBox="0 0 160 160" fill="none" xmlns="http://www.w3.org/2000/svg">
<circle cx="80" cy="80" r="77.5" fill="#EBEBEB" stroke="white" stroke-width="5"/>
<path d="M106.975 66.0071C106.975 80.9227 94.8837 93.0142 79.968 93.0142C65.0524 93.0142 52.9609 80.9227 52.9609 66.0071C52.9609 51.0915 65.0524 39 79.968 39C94.8837 39 106.975 51.0915 106.975 66.0071Z" fill="#C3C3C3"/>
<path d="M102.462 89.3066C96.6289 94.9393 88.7 98.4147 79.9709 98.4147C71.1656 98.4147 63.1736 94.8814 57.3254 89.1611C46.8646 96.3296 40 108.361 40 122H119.582C119.583 108.452 112.806 96.4916 102.463 89.3058L102.462 89.3066Z" fill="#C3C3C3"/>
</svg>
