<svg width="36" height="36" viewBox="0 0 36 36" fill="none" xmlns="http://www.w3.org/2000/svg">
<circle cx="18" cy="18" r="18" fill="#D9D9D9"/>
<path d="M27.5316 17.6229C27.3377 17.1544 26.922 17.0421 26.6407 17.0152V14.1601C26.6407 13.1013 25.7796 12.2401 24.7207 12.2401H18.9607V10.9057C19.2535 10.6427 19.4407 10.2645 19.4407 9.84015C19.4407 9.45823 19.289 9.09197 19.0189 8.82191C18.7489 8.55186 18.3826 8.40015 18.0007 8.40015C17.6188 8.40015 17.2525 8.55186 16.9825 8.82191C16.7124 9.09197 16.5607 9.45823 16.5607 9.84015C16.5607 10.2645 16.7479 10.6427 17.0407 10.9057V12.2401H11.2807C10.2218 12.2401 9.36071 13.1013 9.36071 14.1601V17.0373L9.28199 17.043C9.04005 17.0605 8.81368 17.1689 8.64841 17.3465C8.48314 17.524 8.39121 17.7576 8.39111 18.0001V19.9201C8.39111 20.1748 8.49226 20.4189 8.67229 20.599C8.85233 20.779 9.09651 20.8801 9.35111 20.8801H9.36071V25.6801C9.36071 26.739 10.2218 27.6001 11.2807 27.6001H24.7207C25.7796 27.6001 26.6407 26.739 26.6407 25.6801V20.8801C26.8953 20.8801 27.1395 20.779 27.3195 20.599C27.4996 20.4189 27.6007 20.1748 27.6007 19.9201V18.0597C27.6118 17.9107 27.5881 17.7612 27.5316 17.6229ZM11.2807 25.6801V14.1601H24.7207L24.7217 17.9963L24.7207 18.0001V19.9201L24.7217 19.9249L24.7226 25.6801H11.2807Z" fill="#5F5F5F"/>
<path d="M14.639 19.9201C15.4343 19.9201 16.079 19.0605 16.079 18.0001C16.079 16.9397 15.4343 16.0801 14.639 16.0801C13.8437 16.0801 13.199 16.9397 13.199 18.0001C13.199 19.0605 13.8437 19.9201 14.639 19.9201Z" fill="#5F5F5F"/>
<path d="M21.3585 19.9201C22.1537 19.9201 22.7985 19.0605 22.7985 18.0001C22.7985 16.9397 22.1537 16.0801 21.3585 16.0801C20.5632 16.0801 19.9185 16.9397 19.9185 18.0001C19.9185 19.0605 20.5632 19.9201 21.3585 19.9201Z" fill="#5F5F5F"/>
<path d="M14.1587 21.8401H21.8387V23.7601H14.1587V21.8401Z" fill="#5F5F5F"/>
</svg>
